<svg xmlns="http://www.w3.org/2000/svg" viewBox="0 0 493.71 81.15"><defs><style>.cls-1,.cls-2{fill:#fff;}.cls-2{fill-rule:evenodd;}</style></defs><title>Asset 1</title><g id="Layer_2" data-name="Layer 2"><g id="T-Mobile"><polygon class="cls-1" points="0.01 52.76 16.09 52.76 16.09 36.67 0.01 36.67 0.01 52.76 0.01 52.76"/><path class="cls-1" d="M38.73,3.79c13.1.23,20.92,9,22.07,24.94L65.05,28,64.24,0H.8L0,28l4.25.69C5.4,12.76,13.1,4,26.32,3.79V62.52c0,10.69-1.84,12.42-13.33,12.53v4.48H52.06V75.05c-11.49-.11-13.33-1.84-13.33-12.53V3.79Z"/><polygon class="cls-1" points="48.83 52.76 64.91 52.76 64.91 36.67 48.83 36.67 48.83 52.76 48.83 52.76"/><polygon class="cls-1" points="97.09 52.76 113.18 52.76 113.18 36.67 97.09 36.67 97.09 52.76 97.09 52.76"/><polygon class="cls-1" points="145.35 52.76 161.44 52.76 161.44 36.67 145.35 36.67 145.35 52.76 145.35 52.76"/><path class="cls-1" d="M205.8,79.53,226.14,9.89V64.6c0,6-.34,8.16-1.71,9.54-1,1-3.46,1.72-6.09,1.72h-1v3.68H246V75.86h-1.49c-2.65,0-5.06-.69-6.09-1.72-1.38-1.38-1.73-3.56-1.73-9.54V17.82c0-6,.35-8.16,1.73-9.54,1.15-1,3.45-1.72,6.09-1.72H246V2.87h-22.3L206.95,59.31,190.52,2.87H168.34V6.55h2.06c6.09,0,7.24,1.38,7.24,9.08V60.11c0,7.12-.34,9.88-1.37,12.07a7,7,0,0,1-6.09,3.67h-1.84v3.68H192V75.86h-1.49a7.55,7.55,0,0,1-6.78-3.56C182.35,70,182,67.93,182,60.11V9.89l20.23,69.65Z"/><path class="cls-2" d="M270.72,25.06c-14.25,0-23.57,11-23.57,28.16,0,16.67,9.32,27.93,23.22,27.93s23.33-11.26,23.33-28-9.31-28-23-28Zm-.46,3.68c4.15,0,7.7,2.53,9.66,6.9,1.84,4,2.65,9.54,2.65,17.47,0,16.32-4,24.37-12.19,24.37s-12.06-8-12.06-24.6c0-7.7.8-13.1,2.65-17.24s5.51-6.9,9.3-6.9Z"/><path class="cls-2" d="M312.78,2.07l-16.32.8V6.44h.8c4.83,0,5.86,1.6,5.86,9.19V68.16c0,6.66-.23,8.5-1.14,11.37h3.79c2.87-4.59,3.56-5.4,4.71-5.4a3,3,0,0,1,2,.92c5.63,4.6,8,5.63,13.22,5.63,12.41,0,21.37-12,21.37-28.61,0-15.86-8.27-26.55-20.68-26.55-6.43,0-11.15,3-13.56,8.62V2.07Zm12,27.47c7.35,0,11.14,7.81,11.14,23,0,15.86-3.9,24.14-11.37,24.14-8.29,0-12.65-8.39-12.65-23.79,0-7.59,1-13,3.45-17,2.18-3.9,5.86-6.32,9.43-6.32Z"/><path class="cls-2" d="M368.29,25.86l-16.77.8v3.56h1.26c4.83,0,5.86,1.61,5.86,9.19V66.66c0,7.59-1,9.31-5.86,9.31h-1.84v3.56H376V76h-1.83c-4.83,0-5.87-1.61-5.87-9.31V25.86ZM362.77,2.3a6.32,6.32,0,1,0-.11,12.64A6.23,6.23,0,0,0,369,8.62a6.28,6.28,0,0,0-6.21-6.32Z"/><path class="cls-1" d="M397.36,2.07l-16.78.8V6.44h1.26c4.83,0,5.86,1.6,5.86,9.19v51c0,7.7-1,9.31-5.86,9.31H380v3.56h25.06V76h-1.84c-4.83,0-5.86-1.61-5.86-9.31V2.07Z"/><path class="cls-2" d="M450.81,52.76c-.58-17-8.85-27.7-21.39-27.7-12.07,0-20.8,11.61-20.8,27.7,0,17.35,8.62,28.39,22,28.39,8.63,0,14.6-4.48,19.54-14.48l-3.45-1.83c-4,8.5-8,11.84-14.25,11.84-9.08,0-13-7.13-13.1-23.91Zm-31.39-4c.12-12.07,4.14-19.66,10.58-19.66s10.23,7.36,10.11,19.66Z"/><path class="cls-1" d="M484.45,31.9a4.8,4.8,0,0,1,0-6.79,4.8,4.8,0,1,1,6.78,6.78,4.79,4.79,0,0,1-6.79,0Zm-.75-7.57a5.89,5.89,0,0,0,0,8.31,5.85,5.85,0,0,0,8.3,0,5.7,5.7,0,0,0,1.72-4.16A5.63,5.63,0,0,0,492,24.35a5.89,5.89,0,0,0-8.3,0Zm5.16,4.5a1.7,1.7,0,0,0,1.21-1.66,1.65,1.65,0,0,0-.64-1.36,2.57,2.57,0,0,0-1.64-.51h-2v6.35H487V29.13h.72l1.67,2.52h1.4ZM487,26.34h.72c.74,0,1.13.27,1.13.86s-.4.91-1.19.91H487Z"/><polygon class="cls-1" points="464.5 52.72 480.59 52.72 480.59 36.63 464.5 36.63 464.5 52.72 464.5 52.72"/></g></g></svg>